<svg width="35" height="27" viewBox="0 0 35 27" fill="none" xmlns="http://www.w3.org/2000/svg">
<rect width="35" height="26.5" rx="5" fill="#8988FD"/>
<path d="M21 13C23.21 13 25 11.21 25 9C25 6.79 23.21 5 21 5C18.79 5 17 6.79 17 9C17 11.21 18.79 13 21 13ZM21 7C22.1 7 23 7.9 23 9C23 10.1 22.1 11 21 11C19.9 11 19 10.1 19 9C19 7.9 19.9 7 21 7ZM21 15C18.33 15 13 16.34 13 19V21H29V19C29 16.34 23.67 15 21 15ZM15 19C15.22 18.28 18.31 17 21 17C23.7 17 26.8 18.29 27 19H15ZM12 16V13H15V11H12V8H10V11H7V13H10V16H12Z" fill="white"/>
</svg>
