<svg width="78" height="78" viewBox="0 0 78 78" fill="none" xmlns="http://www.w3.org/2000/svg">
<g opacity="0.5">
<path opacity="0.5" d="M39 78C60.5391 78 78 60.5391 78 39C78 17.4609 60.5391 0 39 0C17.4609 0 0 17.4609 0 39C0 60.5391 17.4609 78 39 78Z" fill="url(#paint0_linear)"/>
</g>
<path d="M39.076 76.9283C60.1608 76.9283 77.2535 59.8356 77.2535 38.7508C77.2535 17.6659 60.1608 0.573242 39.076 0.573242C17.9911 0.573242 0.898438 17.6659 0.898438 38.7508C0.898438 59.8356 17.9911 76.9283 39.076 76.9283Z" fill="#F5F5F5"/>
<path d="M39.1118 77.0792C46.5717 77.0913 53.8701 74.9071 60.0969 70.7989C58.69 63.1107 53.3361 62.6726 53.3361 62.6726H23.8124C23.8124 62.6726 18.7603 63.0872 17.1824 70.1597C23.6022 74.6755 31.2628 77.0927 39.1118 77.0792Z" fill="#8988FD"/>
<path opacity="0.1" d="M32.759 53.2948H44.5663V62.7408C44.5663 64.3062 43.9446 65.8075 42.838 66.9145C41.7313 68.0216 40.2303 68.6439 38.6649 68.6445C37.0992 68.6445 35.5976 68.0225 34.4904 66.9153C33.3833 65.8082 32.7613 64.3066 32.7613 62.7408V53.2948H32.759Z" fill="black"/>
<path d="M33.1333 52.8567H44.1964C44.2957 52.8567 44.3909 52.8961 44.4611 52.9663C44.5313 53.0365 44.5707 53.1318 44.5707 53.231V62.3027C44.5709 63.0783 44.4182 63.8463 44.1215 64.5628C43.8247 65.2794 43.3897 65.9304 42.8412 66.4787C42.2928 67.0271 41.6416 67.462 40.925 67.7586C40.2084 68.0553 39.4404 68.2078 38.6649 68.2075C37.0991 68.2075 35.5975 67.5855 34.4904 66.4784C33.3832 65.3712 32.7612 63.8696 32.7612 62.3038V53.231C32.7612 53.1321 32.8004 53.0373 32.8701 52.9671C32.9398 52.897 33.0345 52.8573 33.1333 52.8567Z" fill="#ADADAD"/>
<path opacity="0.1" d="M32.78 57.7536C36.5854 59.1753 40.7742 59.1868 44.5873 57.786V56.3333H32.78V57.7536Z" fill="black"/>
<path d="M38.7062 58.5436C48.0532 58.5436 55.6304 50.9664 55.6304 41.6194C55.6304 32.2724 48.0532 24.6952 38.7062 24.6952C29.3592 24.6952 21.782 32.2724 21.782 41.6194C21.782 50.9664 29.3592 58.5436 38.7062 58.5436Z" fill="#ADADAD"/>
<path d="M65.4999 51.1667H63.8333V54.5H60.4999V56.1667H63.8333V59.5H65.4999V56.1667H68.8333V54.5H65.4999V51.1667ZM64.6666 47C60.0666 47 56.3333 50.7333 56.3333 55.3333C56.3333 59.9333 60.0666 63.6667 64.6666 63.6667C69.2666 63.6667 72.9999 59.9333 72.9999 55.3333C72.9999 50.7333 69.2666 47 64.6666 47ZM64.6666 62C60.9916 62 57.9999 59.0083 57.9999 55.3333C57.9999 51.6583 60.9916 48.6667 64.6666 48.6667C68.3416 48.6667 71.3333 51.6583 71.3333 55.3333C71.3333 59.0083 68.3416 62 64.6666 62Z" fill="#8988FD"/>
<defs>
<linearGradient id="paint0_linear" x1="39" y1="78" x2="39" y2="0" gradientUnits="userSpaceOnUse">
<stop stop-color="#808080" stop-opacity="0.25"/>
<stop offset="0.54" stop-color="#808080" stop-opacity="0.12"/>
<stop offset="1" stop-color="#808080" stop-opacity="0.1"/>
</linearGradient>
</defs>
</svg>
