<svg width="24" height="25" viewBox="0 0 24 25" fill="none" xmlns="http://www.w3.org/2000/svg">
<path d="M12 5.55556V0H0V25H24V5.55556H12ZM4.8 22.2222H2.4V19.4444H4.8V22.2222ZM4.8 16.6667H2.4V13.8889H4.8V16.6667ZM4.8 11.1111H2.4V8.33333H4.8V11.1111ZM4.8 5.55556H2.4V2.77778H4.8V5.55556ZM9.6 22.2222H7.2V19.4444H9.6V22.2222ZM9.6 16.6667H7.2V13.8889H9.6V16.6667ZM9.6 11.1111H7.2V8.33333H9.6V11.1111ZM9.6 5.55556H7.2V2.77778H9.6V5.55556ZM21.6 22.2222H12V19.4444H14.4V16.6667H12V13.8889H14.4V11.1111H12V8.33333H21.6V22.2222ZM19.2 11.1111H16.8V13.8889H19.2V11.1111ZM19.2 16.6667H16.8V19.4444H19.2V16.6667Z" fill="white"/>
</svg>
